<svg xmlns="http://www.w3.org/2000/svg" xmlns:xlink="http://www.w3.org/1999/xlink" viewBox="0 0 512 512" id="basketball-education">
  <defs>
    <linearGradient id="a" x1="264.67" x2="264.67" y1="279" y2="135.46" gradientUnits="userSpaceOnUse">
      <stop offset="0" stop-color="#cacfdd"></stop>
      <stop offset="1" stop-color="#eef0f1"></stop>
    </linearGradient>
    <linearGradient xlink:href="#a" id="b" x1="285.1" x2="285.1" y1="322.24" y2="577.92" gradientTransform="translate(-20.32 -27.36)"></linearGradient>
    <linearGradient xlink:href="#a" id="c" x1="264.46" x2="264.46" y1="114.53" y2="234.75"></linearGradient>
  </defs>
  <g style="isolation:isolate">
    <g>
      <rect width="19.69" height="6" x="63.52" y="295.5" fill="#5e6175"></rect>
      <rect width="19.69" height="6" x="70.59" y="321.24" fill="#5e6175" transform="rotate(-45 80.432 324.234)"></rect>
      <rect width="6" height="19.69" x="76.21" y="263.39" fill="#5e6175" transform="rotate(-45 79.215 273.228)"></rect>
      <path fill="#a9afc4" d="M364.17,62.66l-5.74-1.75,1.75-5.74,5.74,1.75ZM348.87,58l-5.74-1.75,1.75-5.74,5.74,1.75Zm-15.31-4.67-5.74-1.75,1.75-5.74,5.74,1.75ZM206.84,49.59,205,43.87l5.72-1.82,1.82,5.72Zm111.42-.92-5.74-1.75,1.75-5.74L320,42.93Zm-96.17-3.94L220.26,39,226,37.19l1.82,5.72ZM303,44l-5.74-1.75L299,36.51l5.74,1.75Zm-65.62-4.13-1.82-5.71,5.72-1.82,1.82,5.71Zm50.32-.54-5.74-1.75,1.75-5.73,5.74,1.75ZM252.58,35l-1.83-5.72a45.13,45.13,0,0,1,6.15-1.69l1.09,5.9A39.35,39.35,0,0,0,252.58,35Zm19.76-.35A31.14,31.14,0,0,0,267,33.35l.87-5.94a38.07,38.07,0,0,1,6.26,1.52Z"></path>
      <path fill="#5e6175" d="M384.32 473.05a11.67 11.67 0 117.07-21C400.19 458.73 395.62 473.05 384.32 473.05zm0-17.34a5.67 5.67 0 10.76 11.29h0a5.67 5.67 0 00-.76-11.29zM439.16 416.15a9 9 0 115.46-16.22C451.43 405.08 447.89 416.15 439.16 416.15zm-3-8.61a3 3 0 104.81-2.83A3 3 0 00436.19 407.54z"></path>
      <circle cx="264.79" cy="303.83" r="157.82" fill="#e08326" transform="rotate(-45 264.782 303.834)"></circle>
      <path fill="#e08326" d="M422.6,303.52A157.82,157.82,0,1,1,319.9,155.91,157.8,157.8,0,0,1,422.6,303.52Z"></path>
      <path fill="url(#a)" d="M402.54,226.77c-8.07,8.19-47.47,42.73-138.08,42.73-89.19,0-128.75-33.46-137.66-42.32a158.28,158.28,0,0,1,82.87-71.27H319.9A158.28,158.28,0,0,1,402.54,226.77Z" style="mix-blend-mode:multiply"></path>
      <path fill="url(#b)" d="M265.1,461.65c-92.6.19-165.44-79.12-157.59-171,7,80.85,74.92,125.57,157.54,125.4S415.34,370.92,422,290C430.21,381.83,357.74,461.47,265.1,461.65Z" style="mix-blend-mode:multiply"></path>
      <path fill="#5e6175" d="M264.77,464.66A160.74,160.74,0,0,1,104,304.16C103.78,215.51,175.82,143,264.79,143c88.53,0,160.63,71.93,160.81,160.5A160.73,160.73,0,0,1,264.77,464.66Zm0-315.65c-85.69,0-155,69.83-154.83,155.14a154.82,154.82,0,1,0,309.64-.63C419.43,218.26,350,149,264.79,149Z"></path>
      <path fill="#5e6175" d="M150.82,417.3c-35.12-35.62-50.72-82.68-46.07-129.42a160.89,160.89,0,0,1,143.43-144c46.35-4.79,93.5,10.27,129.6,45.54,15,59.38-14.12,125-58.08,169.11h0C275.84,402.56,210.53,432.06,150.82,417.3Zm3.09-5.42a123.61,123.61,0,0,0,28.76,3.29c44.73,0,94.18-22.13,132.78-60.88h0c47.11-47.31,69.4-110.7,56.93-161.78-61-59-157.83-57.64-217.3,2.07S94.58,351,153.91,411.88Z"></path>
      <rect width="6" height="315.64" x="261.78" y="146.01" fill="#5e6175" transform="rotate(-45.12 264.759 303.814)"></rect>
      <path fill="#5e6175" d="M376.61,419.44l-227.89-227,2.11-2.13c25.23-25.33,59-42.53,98.81-46.62,34.08,35.63,59.78,75.55,76.4,121.75,6.65,18.51,16,33.81,27.68,45.47,20.44,20.36,46.17,27.47,64.15,29.85l3.36.44-.85,3.29a160.54,160.54,0,0,1-41.65,72.8Zm-219.39-227L376.58,410.94a154.58,154.58,0,0,0,37.11-64.69c-45.84-7.21-77.09-33.63-93.3-78.75-15.57-43.29-40.14-82.82-73-117.51A155.23,155.23,0,0,0,157.22,192.47Z"></path>
      <path fill="#5e6175" d="M302.83,460.14l-.46-3.36c-2.46-18-9.68-43.7-30.11-64-11.72-11.67-27-20.92-45.58-27.49-45.34-16.09-85.59-41.28-122.07-75.9,4-39.93,21-73.72,46.22-99l2.12-2.12,227.9,227-2.12,2.13a160.59,160.59,0,0,1-72.62,41.95ZM110.88,287c34.81,32.77,74.44,57.19,117.8,72.58,44.45,15.76,71.59,46.41,79.13,93a154.71,154.71,0,0,0,64.53-37.39L153,196.72A155,155,0,0,0,110.88,287Z"></path>
      <path fill="#a9afc4" d="M124.78,135.11v69.14s36.88,44.46,139.68,44.46,139.68-44.46,139.68-44.46V135.11Z"></path>
      <path fill="#a9afc4" d="M404.14,135.11v69.14S367.26,248.7,264.46,248.7s-139.68-44.45-139.68-44.45V135.11Z"></path>
      <polygon fill="url(#c)" points="404.14 135.11 404.14 154.46 263.06 197.62 124.78 155.31 124.78 135.11 404.14 135.11" style="mix-blend-mode:multiply"></polygon>
      <path fill="#5e6175" d="M264.46,251.71c-29.64,0-72.73-3.92-109.74-22.55-11.19-5.64-25.28-14.61-32.94-23.83V132.11H407.14v73.22c-7.69,9.27-21.84,18.24-32.94,23.83C353.78,239.44,318.16,251.71,264.46,251.71ZM127.78,203.09c2.5,2.66,11.89,11.83,30,20.9,19.8,9.91,54.38,21.72,106.65,21.72,28.85,0,70.77-3.77,106.65-21.72,18.14-9.07,27.52-18.23,30-20.9v-65H127.78Z"></path>
      <polygon fill="#a9afc4" points="263.06 53.75 58.27 116.4 263.06 179.04 467.85 116.4 263.06 53.75"></polygon>
      <path fill="#5e6175" d="M263.06,182.18,48,116.4,263.06,50.61,478.11,116.4ZM68.53,116.4l194.53,59.5L457.6,116.4,263.06,56.89Z"></path>
      <path fill="#dee1ec" d="M173.06,255.51H156.55V143l96.08-31.87a8.26,8.26,0,0,1,5.2,15.67l-84.77,28.11Z"></path>
      <path fill="#5e6175" d="M176.06,258.51H153.55V140.86l98.14-32.55a11.25,11.25,0,0,1,7.08,21.36l-82.71,27.44Zm-16.51-6h10.51V152.78L256.88,124a5.25,5.25,0,0,0-3.3-10l-94,31.18Z"></path>
      <path fill="#dee1ec" d="M172.21,263.26h-14.8s-6.71,6.84-6.71,20.32v20.25h28.22V283.58C178.92,270.1,172.21,263.26,172.21,263.26Z"></path>
      <path fill="#5e6175" d="M181.92,306.83H147.7V283.58c0-8.53,2.59-17.34,8.45-23.32h17.32c5.85,6,8.45,14.79,8.45,23.32Zm-28.22-6h22.22V283.58c0-9.46-3.53-15.2-5.11-17.32h-12c-1.58,2.1-5.11,7.85-5.11,17.32Z"></path>
      <circle cx="164.81" cy="255.51" r="11.06" fill="#dee1ec"></circle>
      <path fill="#5e6175" d="M164.81,269.57a14.06,14.06,0,1,1,14.05-14.06A14.08,14.08,0,0,1,164.81,269.57Zm0-22.12a8.06,8.06,0,1,0,8.05,8.06A8.07,8.07,0,0,0,164.81,247.45Z"></path>
      <rect width="6" height="25.79" x="161.81" y="278.05" fill="#5e6175"></rect>
    </g>
  </g>
</svg>
